<svg width="36" height="36" viewBox="0 0 36 36" fill="none" xmlns="http://www.w3.org/2000/svg">
<path fill-rule="evenodd" clip-rule="evenodd" d="M3.06903 35.2396L26.2022 1.31104H32.4125L9.27519 35.2396H3.06903Z" fill="#DFF0FE"/>
<path d="M31.5196 1.98351L8.95813 34.9247H3.96176L26.5232 1.98351H31.5196ZM33.473 0.954102H25.979L2.00836 35.9541H9.5024L33.473 0.954102Z" fill="#4788C7"/>
<path d="M28.1701 35.2398C24.4642 35.2398 21.4529 32.2663 21.4529 28.6072V27.5868C21.4529 23.9276 24.4642 20.9541 28.1701 20.9541C31.8759 20.9541 34.8872 23.9276 34.8872 27.5868V28.6072C34.8872 32.2663 31.8759 35.2398 28.1701 35.2398ZM28.1701 25.0357C26.7698 25.0357 25.5865 26.2041 25.5865 27.5868V28.6072C25.5865 29.9898 26.7698 31.1582 28.1701 31.1582C29.5703 31.1582 30.7536 29.9898 30.7536 28.6072V27.5868C30.7536 26.2041 29.5703 25.0357 28.1701 25.0357Z" fill="#DFF0FE"/>
<path d="M27.9933 21.621C31.4203 21.621 34.2054 24.375 34.2054 27.7638V28.7876C34.2054 32.1765 31.4203 34.9305 27.9933 34.9305C24.5662 34.9305 21.7811 32.1765 21.7811 28.7876V27.7638C21.7811 24.375 24.5662 21.621 27.9933 21.621ZM27.9933 31.8591C29.6757 31.8591 31.0993 30.4513 31.0993 28.7876V27.7638C31.0993 26.1001 29.6757 24.6924 27.9933 24.6924C26.3108 24.6924 24.8872 26.1001 24.8872 27.7638V28.7876C24.8872 30.4513 26.3108 31.8591 27.9933 31.8591ZM27.9933 20.5972C24.0051 20.5972 20.7458 23.8201 20.7458 27.7638V28.7876C20.7458 32.7314 24.0051 35.9543 27.9933 35.9543C31.9814 35.9543 35.2407 32.7314 35.2407 28.7876V27.7638C35.2407 23.8201 31.9814 20.5972 27.9933 20.5972ZM27.9933 30.8353C26.8772 30.8353 25.9226 29.8913 25.9226 28.7876V27.7638C25.9226 26.6602 26.8772 25.7162 27.9933 25.7162C29.1094 25.7162 30.064 26.6602 30.064 27.7638V28.7876C30.064 29.8913 29.1094 30.8353 27.9933 30.8353Z" fill="#4788C7"/>
<path d="M7.31141 15.9542C3.6056 15.9542 0.594238 12.9807 0.594238 9.32152V8.30111C0.594238 4.64193 3.6056 1.66846 7.31141 1.66846C11.0172 1.66846 14.0286 4.64193 14.0286 8.30111V9.32152C14.0286 12.9807 11.0172 15.9542 7.31141 15.9542ZM7.31141 5.75009C5.91114 5.75009 4.72788 6.91846 4.72788 8.30111V9.32152C4.72788 10.7042 5.91114 11.8725 7.31141 11.8725C8.71168 11.8725 9.89494 10.7042 9.89494 9.32152V8.30111C9.89494 6.91846 8.71168 5.75009 7.31141 5.75009Z" fill="#DFF0FE"/>
<path d="M7.4882 1.97791C10.9152 1.97791 13.7003 4.73196 13.7003 8.12077V9.14458C13.7003 12.5334 10.9152 15.2874 7.4882 15.2874C4.06118 15.2874 1.27608 12.5334 1.27608 9.14458V8.12077C1.27608 4.73196 4.06118 1.97791 7.4882 1.97791ZM7.4882 12.216C9.17065 12.216 10.5943 10.8083 10.5943 9.14458V8.12077C10.5943 6.45708 9.17065 5.04934 7.4882 5.04934C5.80575 5.04934 4.38214 6.45708 4.38214 8.12077V9.14458C4.38214 10.8083 5.80575 12.216 7.4882 12.216ZM7.4882 0.954102C3.50002 0.954102 0.240723 4.17705 0.240723 8.12077V9.14458C0.240723 13.0883 3.50002 16.3112 7.4882 16.3112C11.4764 16.3112 14.7357 13.0883 14.7357 9.14458V8.12077C14.7357 4.17705 11.4764 0.954102 7.4882 0.954102ZM7.4882 11.1922C6.37209 11.1922 5.41749 10.2482 5.41749 9.14458V8.12077C5.41749 7.0171 6.37209 6.07315 7.4882 6.07315C8.60431 6.07315 9.5589 7.0171 9.5589 8.12077V9.14458C9.5589 10.2482 8.60431 11.1922 7.4882 11.1922Z" fill="#4788C7"/>
</svg>
