<svg width="43" height="43" viewBox="0 0 43 43" fill="none" xmlns="http://www.w3.org/2000/svg">
<path fill-rule="evenodd" clip-rule="evenodd" d="M24.8328 42.2557C23.8531 42.2557 23.0915 41.366 23.0915 40.5978C23.0915 39.8938 23.037 39.13 22.9325 38.3177L22.8745 37.8347H15.1861L15.1245 38.3188C15.0201 39.13 14.9655 39.8938 14.9655 40.5978C14.9655 41.366 14.204 42.2557 13.2242 42.2557H8.58076C7.60099 42.2557 6.83947 41.366 6.83947 40.5978C6.83947 38.2834 6.28574 35.969 5.95489 34.7952L5.90846 34.6349L5.77844 34.5244C2.76252 31.9967 1.03516 28.3703 1.03516 24.5715C1.03516 17.258 7.28408 11.3083 14.9655 11.3083H24.2524C24.8909 11.3083 26.5648 11.3526 27.0826 11.4122L27.3995 11.4509L27.605 11.2122C29.5459 8.9464 33.1736 8.27661 35.1227 8.07324C34.1522 9.2824 32.7197 11.4111 32.5653 13.6327L32.5479 13.9278L32.7917 14.1047C34.1801 15.1381 35.341 16.3948 36.2395 17.8405L36.3161 17.962L40.8202 20.5351C41.3426 20.8335 41.6677 21.3751 41.6677 21.9553V28.0509C41.6677 28.7339 41.2381 29.3385 40.5765 29.5872L36.2929 31.2208L36.1942 31.3799C35.1425 33.0467 33.7134 34.4935 32.0592 35.5578L31.8688 35.6794L31.8177 35.8916C31.423 37.5937 31.2187 39.1776 31.2187 40.5978C31.2187 41.366 30.4572 42.2557 29.4774 42.2557H24.8328Z" fill="#DFF0FE"/>
<path d="M33.8709 8.94934C33.0003 10.2314 32.1064 11.9501 31.9834 13.7418L31.9427 14.3298L32.4268 14.6879C33.7595 15.676 34.8704 16.8763 35.733 18.2667L35.8815 18.5099L36.1369 18.6513L40.5169 21.1492C40.8616 21.3482 41.0787 21.7129 41.0787 22.0998V28.1931C41.0787 28.6507 40.7932 29.0519 40.3474 29.221L36.2542 30.7794L35.8862 30.9165L35.6865 31.2348C34.68 32.8374 33.3114 34.2234 31.728 35.2469L31.3472 35.4922L31.2474 35.92C30.8411 37.6552 30.6321 39.28 30.6321 40.7422C30.6321 41.2429 30.1155 41.8475 29.4713 41.8475H24.8278C24.1835 41.8475 23.667 41.2429 23.667 40.7422C23.667 40.0172 23.6124 39.228 23.5044 38.3991L23.3814 37.4265H14.6656L14.5437 38.3991C14.4358 39.228 14.3812 40.0172 14.3812 40.7422C14.3812 41.2429 13.8646 41.8475 13.2204 41.8475H8.57574C7.93146 41.8475 7.41488 41.2429 7.41488 40.7422C7.41488 38.4875 6.925 36.2659 6.51289 34.7959L6.42234 34.4732L6.15883 34.2521C3.2706 31.8349 1.61057 28.3578 1.61057 24.717C1.61057 17.7097 7.60062 12.0065 14.9605 12.0065H24.2474C24.8824 12.0065 26.5285 12.0507 27.0102 12.106L27.6441 12.1789L28.0469 11.7081C29.4898 10.0248 31.9741 9.28203 33.8698 8.94934H33.8709ZM36.4364 7.58545C36.4364 7.58545 30.083 7.58987 27.1449 11.0096C26.5784 10.9432 24.8371 10.9012 24.2474 10.9012H14.9605C6.94821 10.9012 0.449707 17.0885 0.449707 24.717C0.449707 28.8529 2.36745 32.5533 5.39266 35.0844C5.73743 36.3079 6.25402 38.5218 6.25402 40.7433C6.25402 41.8486 7.29299 42.9539 8.57574 42.9539H13.2192C14.5019 42.9539 15.5409 41.8486 15.5409 40.7433C15.5409 39.9918 15.6048 39.2457 15.6953 38.5328H22.3517C22.4422 39.2457 22.5061 39.9918 22.5061 40.7433C22.5061 41.8486 23.5451 42.9539 24.8278 42.9539H29.4713C30.754 42.9539 31.793 41.8486 31.793 40.7433C31.793 39.0722 32.0878 37.4055 32.3781 36.1587C34.1286 35.0313 35.5937 33.537 36.6849 31.8062L40.7804 30.2478C41.665 29.9107 42.2407 29.0983 42.2407 28.192V22.102C42.2407 21.3239 41.8147 20.6021 41.1112 20.2053L36.7313 17.7008C35.7968 16.1977 34.5814 14.8824 33.1396 13.8158C33.3578 10.647 36.4364 7.58545 36.4364 7.58545Z" fill="#4788C7"/>
<path d="M5.67354 10.3486C3.10803 10.3486 1.03009 12.3271 1.03009 14.7697C1.03009 15.9744 1.53855 17.0664 2.35928 17.8644C2.37089 17.8777 2.38598 17.8909 2.39991 17.9042L2.41732 17.9219" stroke="#4788C7" stroke-linecap="round"/>
<path fill-rule="evenodd" clip-rule="evenodd" d="M34.1148 19.7434C34.1148 20.3513 33.5924 20.8487 32.954 20.8487C32.3155 20.8487 31.7931 20.3513 31.7931 19.7434C31.7931 19.1356 32.3155 18.6382 32.954 18.6382C33.5924 18.6382 34.1148 19.1356 34.1148 19.7434Z" fill="#4788C7"/>
<path fill-rule="evenodd" clip-rule="evenodd" d="M25.4082 7.58578C25.4082 10.9458 22.5524 13.6647 19.0234 13.6647C15.4944 13.6647 12.6387 10.9458 12.6387 7.58578C12.6387 4.22578 15.4944 1.50684 19.0234 1.50684C22.5524 1.50684 25.4082 4.22578 25.4082 7.58578Z" fill="#DFF0FE"/>
<path d="M19.0235 2.05936C22.2252 2.05936 24.8232 4.53737 24.8232 7.58568C24.8232 10.634 22.2205 13.112 19.0235 13.112C15.8219 13.112 13.2192 10.634 13.2192 7.58568C13.2192 4.53737 15.8219 2.05936 19.0235 2.05936ZM19.0235 0.954102C15.1811 0.954102 12.0583 3.92726 12.0583 7.58568C12.0583 11.2441 15.1811 14.2173 19.0235 14.2173C22.866 14.2173 25.984 11.2441 25.984 7.58568C25.9887 3.92726 22.866 0.954102 19.0235 0.954102Z" fill="#4788C7"/>
<path d="M17.6382 7.7851H18.1433V5.51579H19.4451C19.687 5.51579 19.9075 5.54424 20.1067 5.60115C20.3059 5.65332 20.4766 5.73632 20.6189 5.85014C20.7612 5.95922 20.8726 6.09912 20.9533 6.26985C21.0339 6.44058 21.0742 6.64451 21.0742 6.88164C21.0742 7.11877 21.0315 7.32507 20.9461 7.50054C20.8608 7.67602 20.7446 7.82304 20.5976 7.9416C20.4505 8.05542 20.2774 8.14079 20.0783 8.1977C19.8791 8.25461 19.6633 8.28306 19.4309 8.28306H18.7124V9.00156H19.8577V9.47107H18.7124V10.4741H18.1433V9.47107H17.6382V9.00156H18.1433V8.28306H17.6382V7.7851ZM19.4451 7.7851C19.7724 7.7851 20.0285 7.71159 20.2134 7.56457C20.4031 7.41281 20.498 7.18516 20.498 6.88164C20.498 6.57812 20.4031 6.35759 20.2134 6.22006C20.0285 6.08252 19.7724 6.01376 19.4451 6.01376H18.7124V7.7851H19.4451Z" fill="#4788C7"/>
<path fill-rule="evenodd" clip-rule="evenodd" d="M13.2191 13.1118H24.8277V15.3223H13.2191V13.1118Z" fill="#B6DCFE"/>
<path fill-rule="evenodd" clip-rule="evenodd" d="M13.2191 13.1121H24.8277C25.4546 13.1121 25.9572 12.6368 25.9793 12.0455C25.3489 12.0234 24.6234 12.0068 24.2473 12.0068H14.9604C13.9853 12.0068 13.038 12.1152 12.1221 12.3053C12.2579 12.7673 12.6886 13.1121 13.2191 13.1121Z" fill="#4788C7"/>
</svg>
