<svg width="33" height="43" viewBox="0 0 33 43" fill="none" xmlns="http://www.w3.org/2000/svg">
<path d="M20.2814 35.7061H12.5598V41.9541H5.78137V35.7061H1.47853V30.4013H5.78137V25.6858H1.47853V19.7915H5.78137V0.634997H16.7448C19.7312 0.634997 22.1872 1.0476 24.1127 1.8728C26.0381 2.69801 27.551 3.75898 28.6513 5.05573C29.7909 6.31318 30.5571 7.68852 30.9501 9.18174C31.3823 10.675 31.5984 12.07 31.5984 13.3667C31.5984 14.6635 31.3627 16.0584 30.8911 17.5517C30.4589 19.0056 29.673 20.3416 28.5334 21.5598C27.3938 22.778 25.8613 23.7996 23.9358 24.6248C22.0497 25.4107 19.6526 25.8037 16.7448 25.8037H12.5598V30.4013H20.2814V35.7061ZM12.5598 19.7915H16.8627C17.6879 19.7915 18.5524 19.7129 19.4562 19.5557C20.3993 19.3593 21.2638 19.0252 22.0497 18.5537C22.8749 18.0822 23.5429 17.4338 24.0537 16.6086C24.5646 15.7441 24.82 14.6438 24.82 13.3078C24.82 11.9324 24.5842 10.8125 24.1127 9.94801C23.6804 9.08351 23.091 8.41548 22.3444 7.94394C21.5978 7.4331 20.7529 7.09909 19.8098 6.94191C18.906 6.74543 17.9629 6.64719 16.9806 6.64719H12.5598V19.7915Z" fill="#DFF0FE"/>
<path d="M20.2814 35.7061V36.2061H20.7814V35.7061H20.2814ZM12.5598 35.7061V35.2061H12.0598V35.7061H12.5598ZM12.5598 41.9541V42.4541H13.0598V41.9541H12.5598ZM5.78137 41.9541H5.28137V42.4541H5.78137V41.9541ZM5.78137 35.7061H6.28137V35.2061H5.78137V35.7061ZM1.47853 35.7061H0.978527V36.2061H1.47853V35.7061ZM1.47853 30.4013V29.9013H0.978527V30.4013H1.47853ZM5.78137 30.4013V30.9013H6.28137V30.4013H5.78137ZM5.78137 25.6858H6.28137V25.1858H5.78137V25.6858ZM1.47853 25.6858H0.978527V26.1858H1.47853V25.6858ZM1.47853 19.7915V19.2915H0.978527V19.7915H1.47853ZM5.78137 19.7915V20.2915H6.28137V19.7915H5.78137ZM5.78137 0.634997V0.134997H5.28137V0.634997H5.78137ZM24.1127 1.8728L24.3096 1.41323L24.1127 1.8728ZM28.6513 5.05573L28.27 5.37922L28.2753 5.38544L28.2808 5.39149L28.6513 5.05573ZM30.9501 9.18174L30.4664 9.30903L30.4698 9.32077L30.9501 9.18174ZM30.8911 17.5517L30.4143 17.4011L30.4119 17.4092L30.8911 17.5517ZM28.5334 21.5598L28.8985 21.9014L28.5334 21.5598ZM23.9358 24.6248L24.1282 25.0864L24.1328 25.0844L23.9358 24.6248ZM12.5598 25.8037V25.3037H12.0598V25.8037H12.5598ZM12.5598 30.4013H12.0598V30.9013H12.5598V30.4013ZM20.2814 30.4013H20.7814V29.9013H20.2814V30.4013ZM12.5598 19.7915H12.0598V20.2915H12.5598V19.7915ZM19.4562 19.5557L19.5418 20.0483L19.55 20.0469L19.5581 20.0452L19.4562 19.5557ZM22.0497 18.5537L21.8015 18.1195L21.7924 18.125L22.0497 18.5537ZM24.0537 16.6086L24.479 16.8718L24.4842 16.8629L24.0537 16.6086ZM24.1127 9.94801L23.6655 10.1716L23.6695 10.1796L23.6737 10.1874L24.1127 9.94801ZM22.3444 7.94394L22.062 8.35659L22.0696 8.36178L22.0774 8.36668L22.3444 7.94394ZM19.8098 6.94191L19.7036 7.4305L19.7156 7.4331L19.7276 7.43511L19.8098 6.94191ZM12.5598 6.64719V6.14719H12.0598V6.64719H12.5598ZM20.2814 35.2061H12.5598V36.2061H20.2814V35.2061ZM12.0598 35.7061V41.9541H13.0598V35.7061H12.0598ZM12.5598 41.4541H5.78137V42.4541H12.5598V41.4541ZM6.28137 41.9541V35.7061H5.28137V41.9541H6.28137ZM5.78137 35.2061H1.47853V36.2061H5.78137V35.2061ZM1.97853 35.7061V30.4013H0.978527V35.7061H1.97853ZM1.47853 30.9013H5.78137V29.9013H1.47853V30.9013ZM6.28137 30.4013V25.6858H5.28137V30.4013H6.28137ZM5.78137 25.1858H1.47853V26.1858H5.78137V25.1858ZM1.97853 25.6858V19.7915H0.978527V25.6858H1.97853ZM1.47853 20.2915H5.78137V19.2915H1.47853V20.2915ZM6.28137 19.7915V0.634997H5.28137V19.7915H6.28137ZM5.78137 1.135H16.7448V0.134997H5.78137V1.135ZM16.7448 1.135C19.6902 1.135 22.073 1.54265 23.9157 2.33237L24.3096 1.41323C22.3014 0.552549 19.7723 0.134997 16.7448 0.134997V1.135ZM23.9157 2.33237C25.7862 3.13403 27.2301 4.15358 28.27 5.37922L29.0325 4.73224C27.8719 3.36438 26.2901 2.26198 24.3096 1.41323L23.9157 2.33237ZM28.2808 5.39149C29.3719 6.59551 30.096 7.9008 30.4665 9.30899L31.4336 9.0545C31.0183 7.47624 30.2098 6.03086 29.0218 4.71997L28.2808 5.39149ZM30.4698 9.32077C30.8915 10.7775 31.0984 12.1252 31.0984 13.3667H32.0984C32.0984 12.0147 31.8732 10.5725 31.4304 9.04272L30.4698 9.32077ZM31.0984 13.3667C31.0984 14.6031 30.8736 15.9468 30.4143 17.4011L31.3679 17.7022C31.8518 16.1701 32.0984 14.7238 32.0984 13.3667H31.0984ZM30.4119 17.4092C30.0038 18.7816 29.2602 20.0509 28.1683 21.2182L28.8985 21.9014C30.0857 20.6323 30.9139 19.2296 31.3704 17.6941L30.4119 17.4092ZM28.1683 21.2182C27.0864 22.3747 25.6165 23.3606 23.7389 24.1653L24.1328 25.0844C26.1062 24.2387 27.7012 23.1812 28.8985 21.9014L28.1683 21.2182ZM23.7435 24.1633C21.9383 24.9155 19.6124 25.3037 16.7448 25.3037V26.3037C19.6929 26.3037 22.161 25.906 24.1282 25.0864L23.7435 24.1633ZM16.7448 25.3037H12.5598V26.3037H16.7448V25.3037ZM12.0598 25.8037V30.4013H13.0598V25.8037H12.0598ZM12.5598 30.9013H20.2814V29.9013H12.5598V30.9013ZM19.7814 30.4013V35.7061H20.7814V30.4013H19.7814ZM12.5598 20.2915H16.8627V19.2915H12.5598V20.2915ZM16.8627 20.2915C17.7196 20.2915 18.6128 20.2099 19.5418 20.0483L19.3705 19.0631C18.4919 19.2159 17.6562 19.2915 16.8627 19.2915V20.2915ZM19.5581 20.0452C20.5532 19.8379 21.4706 19.4842 22.3069 18.9824L21.7924 18.125C21.0569 18.5663 20.2453 18.8806 19.3542 19.0662L19.5581 20.0452ZM22.2977 18.9878C23.1969 18.474 23.9251 17.7662 24.4789 16.8718L23.6286 16.3454C23.1606 17.1013 22.5529 17.6903 21.8016 18.1196L22.2977 18.9878ZM24.4842 16.8629C25.0532 15.9 25.32 14.7046 25.32 13.3078H24.32C24.32 14.583 24.0759 15.5882 23.6233 16.3542L24.4842 16.8629ZM25.32 13.3078C25.32 11.8802 25.076 10.6699 24.5516 9.70858L23.6737 10.1874C24.0925 10.9551 24.32 11.9847 24.32 13.3078H25.32ZM24.5599 9.7244C24.0908 8.78629 23.4423 8.04599 22.6114 7.5212L22.0774 8.36668C22.7397 8.78498 23.27 9.38072 23.6655 10.1716L24.5599 9.7244ZM22.6267 7.53129C21.8167 6.97703 20.9027 6.61716 19.892 6.44871L19.7276 7.43511C20.6031 7.58102 21.3789 7.88917 22.062 8.35659L22.6267 7.53129ZM19.916 6.45332C18.9753 6.2488 17.9965 6.14719 16.9806 6.14719V7.14719C17.9294 7.14719 18.8368 7.24206 19.7036 7.4305L19.916 6.45332ZM16.9806 6.14719H12.5598V7.14719H16.9806V6.14719ZM12.0598 6.64719V19.7915H13.0598V6.64719H12.0598Z" fill="#4788C7"/>
</svg>
