<svg width="48" height="41" viewBox="0 0 48 41" fill="none" xmlns="http://www.w3.org/2000/svg">
<path fill-rule="evenodd" clip-rule="evenodd" d="M5.78595 1.69141H46.2859V35.6177H5.78595V1.69141Z" fill="#DFF0FE"/>
<mask id="path-2-inside-1" fill="white">
<path d="M46.0352 1.9541V34.9541H6.03516V1.9541H46.0352ZM47.0352 0.954102H5.03516V35.9541H47.0352V0.954102Z"/>
</mask>
<path d="M46.0352 1.9541H47.0352V0.954102H46.0352V1.9541ZM46.0352 34.9541V35.9541H47.0352V34.9541H46.0352ZM6.03516 34.9541H5.03516V35.9541H6.03516V34.9541ZM6.03516 1.9541V0.954102H5.03516V1.9541H6.03516ZM47.0352 0.954102H48.0352V-0.0458984H47.0352V0.954102ZM5.03516 0.954102V-0.0458984H4.03516V0.954102H5.03516ZM5.03516 35.9541H4.03516V36.9541H5.03516V35.9541ZM47.0352 35.9541V36.9541H48.0352V35.9541H47.0352ZM45.0352 1.9541V34.9541H47.0352V1.9541H45.0352ZM46.0352 33.9541H6.03516V35.9541H46.0352V33.9541ZM7.03516 34.9541V1.9541H5.03516V34.9541H7.03516ZM6.03516 2.9541H46.0352V0.954102H6.03516V2.9541ZM47.0352 -0.0458984H5.03516V1.9541H47.0352V-0.0458984ZM4.03516 0.954102V35.9541H6.03516V0.954102H4.03516ZM5.03516 36.9541H47.0352V34.9541H5.03516V36.9541ZM48.0352 35.9541V0.954102H46.0352V35.9541H48.0352Z" fill="#4788C7" mask="url(#path-2-inside-1)"/>
<path d="M6.03497 1.9541H46.035V8.9541L6.03497 8.99184V1.9541ZM29.3015 13.4766H41.3399V31.4156H29.3015V13.4766ZM11.2438 13.4766H23.2823V31.4156H11.2438V13.4766Z" fill="#B6DCFE"/>
<path fill-rule="evenodd" clip-rule="evenodd" d="M0.78595 6.69141H41.2859V40.6177H0.78595V6.69141Z" fill="#DFF0FE"/>
<mask id="path-6-inside-2" fill="white">
<path d="M41.0352 6.9541V39.9541H1.03516V6.9541H41.0352ZM42.0352 5.9541H0.0351562V40.9541H42.0352V5.9541Z"/>
</mask>
<path d="M41.0352 6.9541H42.0352V5.9541H41.0352V6.9541ZM41.0352 39.9541V40.9541H42.0352V39.9541H41.0352ZM1.03516 39.9541H0.0351562V40.9541H1.03516V39.9541ZM1.03516 6.9541V5.9541H0.0351562V6.9541H1.03516ZM42.0352 5.9541H43.0352V4.9541H42.0352V5.9541ZM0.0351562 5.9541V4.9541H-0.964844V5.9541H0.0351562ZM0.0351562 40.9541H-0.964844V41.9541H0.0351562V40.9541ZM42.0352 40.9541V41.9541H43.0352V40.9541H42.0352ZM40.0352 6.9541V39.9541H42.0352V6.9541H40.0352ZM41.0352 38.9541H1.03516V40.9541H41.0352V38.9541ZM2.03516 39.9541V6.9541H0.0351562V39.9541H2.03516ZM1.03516 7.9541H41.0352V5.9541H1.03516V7.9541ZM42.0352 4.9541H0.0351562V6.9541H42.0352V4.9541ZM-0.964844 5.9541V40.9541H1.03516V5.9541H-0.964844ZM0.0351562 41.9541H42.0352V39.9541H0.0351562V41.9541ZM43.0352 40.9541V5.9541H41.0352V40.9541H43.0352Z" fill="#4788C7" mask="url(#path-6-inside-2)"/>
<path d="M1.03497 6.9541H41.035V13.9541L1.03497 13.9918V6.9541ZM24.3015 18.4766H36.3399V36.4156H24.3015V18.4766ZM6.24384 18.4766H18.2823V36.4156H6.24384V18.4766Z" fill="#B6DCFE"/>
</svg>
