<svg width="280" height="30" viewBox="0 0 280 30" fill="none" xmlns="http://www.w3.org/2000/svg">
<path fill-rule="evenodd" clip-rule="evenodd" d="M19.2481 10.0839V10.056C19.7739 9.88969 20.4752 9.45236 20.4752 8.30244C20.4752 7.00763 19.4236 6.41415 17.9437 6.41415H15.4314V9.51085H13.9532C11.9673 9.51085 11.5579 10.9033 11.5579 11.6626C11.5579 12.7422 12.1819 13.2209 13.3307 13.7929C13.4503 13.8527 13.5737 13.9086 13.6962 13.964C14.2922 14.2337 14.867 14.4938 14.867 15.1574C14.867 15.5765 14.479 16.0831 13.642 16.0831H12.0843C12.3177 15.6828 12.4148 15.246 12.4148 14.865C12.4148 14.3697 12.2399 12.3827 9.47439 12.3827H7.21594V20.0442H8.7543V16.7055L9.3778 17.3285H13.584C15.5484 17.3285 16.4837 16.316 16.4837 15.1097C16.4837 14.681 16.4059 14.3381 16.2696 14.0574H17.8476C20.2815 14.0574 20.846 12.8495 20.846 11.9035C20.8449 10.9425 20.222 10.2299 19.2481 10.0839ZM9.47389 16.0826H8.75381V13.5789H9.47443C10.37 13.5789 10.7788 14.1235 10.7788 14.7857C10.7783 15.4012 10.4091 16.0826 9.47389 16.0826ZM15.4313 13.1898V11.3316L16.0355 10.7177H15.4313H14.9253H14.304C13.3693 10.7177 13.1745 11.1829 13.1745 11.4947C13.1745 12.1102 13.7003 12.3827 14.1876 12.5968C14.2454 12.622 14.3028 12.6468 14.3599 12.6715C14.7443 12.8376 15.1094 12.9954 15.4313 13.1898ZM16.9696 7.612H17.6709C18.8589 7.612 18.9174 8.34177 18.9174 8.56553C18.9174 8.89608 18.7419 9.51048 17.7294 9.51048H16.9696V7.612ZM16.9696 12.8497H17.8464C18.8197 12.8497 19.2087 12.3249 19.2087 11.7792C19.2087 11.2335 18.9168 10.7173 17.8464 10.7173H16.9696V12.8497Z" fill="#0A104C"/>
<path fill-rule="evenodd" clip-rule="evenodd" d="M27.2601 6.65113C27.2601 2.97716 24.2824 0 20.609 0H11.2126C8.1811 0 5.59566 2.04307 4.81061 4.86796H16.1683C20.5374 4.86796 22.3916 6.90026 22.3916 11.6698V22.4495C25.209 21.6639 27.2596 19.0693 27.2596 16.0491V6.65113H27.2601Z" fill="#1553A3"/>
<path fill-rule="evenodd" clip-rule="evenodd" d="M0 20.6083C0 24.2829 2.97831 27.2601 6.65129 27.2601H16.0474C19.0795 27.2601 21.665 25.217 22.4495 22.3921H11.0921C6.72286 22.3921 4.86861 20.3597 4.86861 15.5901V4.81061C2.05065 5.59568 0 8.19033 0 11.2106V20.6083Z" fill="#F47B20"/>
<path fill-rule="evenodd" clip-rule="evenodd" d="M143.401 20.547V10.5839H146.232V14.2856H149.306V10.5839H152.097V20.547H149.306V16.1053H146.232V20.547H143.401Z" fill="#1553A3"/>
<path fill-rule="evenodd" clip-rule="evenodd" d="M139.327 18.9727V15.4319C138.138 15.5944 136.384 15.8046 136.384 17.5377C136.384 19.6629 138.628 19.2685 139.327 18.9727ZM133.801 17.7013C133.801 16.3361 134.499 15.3236 135.838 14.797C136.442 14.5858 136.989 14.4205 137.46 14.3436C137.931 14.258 138.555 14.1811 139.308 14.0738V13.7585C139.365 12.3148 138.555 12.0466 137.555 12.0466C136.649 12.0466 135.706 12.3419 134.876 12.7969L134.688 11.007C135.838 10.584 137.008 10.3721 138.216 10.3721C138.97 10.3721 139.63 10.4491 140.14 10.6419C141.214 10.9594 141.781 11.8159 141.912 12.8229C141.949 13.0353 141.949 13.3809 141.949 13.8354V20.0372C139.499 20.9999 133.801 21.644 133.801 17.7013Z" fill="#1553A3"/>
<path fill-rule="evenodd" clip-rule="evenodd" d="M129.593 18.6335C129.311 19.029 128.933 19.2099 128.443 19.2099C126.82 19.2099 126.443 16.4969 126.443 15.2786C126.443 14.2574 126.651 13.1891 127.216 12.5271C127.499 12.1614 127.895 11.9962 128.386 11.9962C129.028 11.9962 129.593 12.3917 129.877 13.1891C130.216 14.0472 130.292 14.9319 130.292 15.7277C130.292 16.7678 130.141 17.8562 129.593 18.6335ZM132.988 13.3239C132.799 12.5541 132.365 11.8613 131.763 11.2762C130.802 10.3433 127.407 9.5735 125.764 12.0731C125.764 9.43807 126.859 8.14007 129.047 7.76465C131.217 7.41902 132.44 7.17849 132.44 7.17849L132.234 5.04297C132.234 5.04297 129.99 5.36043 128.141 5.79327C126.142 6.27433 124.217 7.76519 123.746 10.7469C123.425 12.689 123.464 16.0472 124.029 17.6129C124.689 19.4223 126.01 20.7885 128.424 20.7885C131.744 20.7885 133.271 18.7104 133.271 15.4584C133.271 14.8164 133.177 14.1246 132.988 13.3239Z" fill="#1553A3"/>
<path fill-rule="evenodd" clip-rule="evenodd" d="M153.719 20.547V10.5839H156.511V15.1713L159.642 10.5839H162.395L159.207 15.0359L162.717 20.547H159.604L156.511 15.5944V20.547H153.719Z" fill="#1553A3"/>
<path fill-rule="evenodd" clip-rule="evenodd" d="M109.203 20.7592C108.317 20.7592 107.374 20.6818 106.543 20.3648L106.769 18.6334C107.43 19.0289 108.053 19.2099 108.807 19.2099C110.223 19.2099 110.994 18.5479 110.958 17.6128C110.958 17.1626 110.826 16.817 110.523 16.5743C110.242 16.3365 109.939 16.2016 109.543 16.1821C109.166 16.1512 108.864 16.1241 108.6 16.1241H107.92V14.6311H108.109C109.147 14.6311 110.769 14.5856 110.769 13.2199C110.789 12.1619 109.694 11.9192 109.147 11.9192C108.26 11.9192 107.563 12.1305 106.769 12.5541L106.619 10.9115C107.6 10.5063 108.675 10.3438 109.751 10.3438C112.014 10.2951 113.428 11.3346 113.372 12.9008C113.409 14.1815 112.334 14.9323 111.58 15.1712C112.071 15.279 112.485 15.4015 112.825 15.6442C113.504 16.1057 113.768 16.8744 113.768 17.5679C113.768 18.8442 113.089 19.7202 112.107 20.2018C111.127 20.6536 110.071 20.7592 109.203 20.7592Z" fill="#1553A3"/>
<path fill-rule="evenodd" clip-rule="evenodd" d="M84.0599 20.7593C80.836 20.7593 79.0436 18.7608 79.0436 15.5169C79.0436 12.2849 80.9491 10.3433 84.0976 10.3433C84.9656 10.3433 85.5882 10.4484 86.3988 10.7469L86.0976 12.5541C85.5696 12.2849 85.1159 12.1305 84.5502 12.1305C82.6639 12.1305 81.8548 13.7005 81.8548 15.4318C81.8548 17.1903 82.6453 18.9412 84.5693 18.9412C85.1542 18.9412 85.6248 18.8182 86.1353 18.5485L86.3425 20.3844C85.5685 20.6536 84.8896 20.7593 84.0599 20.7593Z" fill="#1553A3"/>
<path fill-rule="evenodd" clip-rule="evenodd" d="M114.976 20.547V10.5839H117.747V13.7276C118.332 13.7 118.71 13.7 118.861 13.7C120.143 13.7 121.105 13.9123 121.689 14.362C122.388 14.901 122.86 15.8544 122.822 16.8946C122.746 20.1439 119.52 20.7593 117.766 20.7593C115.936 20.7593 114.976 20.547 114.976 20.547ZM117.747 18.9406C117.747 18.9406 120.274 19.4802 120.274 17.0288C120.274 16.5743 120.199 16.2281 120.03 15.9979C119.746 15.4897 119.105 15.4009 118.426 15.4009H118.162H118.029C117.992 15.4009 117.897 15.4009 117.747 15.4318V18.9406Z" fill="#1553A3"/>
<path fill-rule="evenodd" clip-rule="evenodd" d="M90.5864 14.739V11.9967C90.5864 11.9967 90.8701 11.9697 91.5675 11.9697C92.9067 11.9697 93.1713 12.766 93.1713 13.278C93.1713 14.2585 92.5864 14.739 91.2281 14.739H90.5864ZM91.2844 16.2868C91.5479 16.2868 91.831 16.2868 92.171 16.3171C92.5105 16.3366 92.7931 16.4401 93.0576 16.6633C93.3227 16.8448 93.4534 17.191 93.4534 17.6455C93.4534 18.7414 92.5105 19.1342 91.2844 19.1342C90.9444 19.1342 90.5864 19.1152 90.5864 19.1152V16.2873H91.2844V16.2868ZM94.0585 15.2472C95.2283 14.8745 95.8126 14.1247 95.8126 12.9882C95.8126 12.4773 95.6994 12.0737 95.4923 11.7265C95.266 11.3613 94.8883 11.0363 94.4171 10.8537C93.53 10.4485 92.3045 10.3434 91.2287 10.3434C89.173 10.3434 87.872 10.5839 87.872 10.5839V20.547C87.872 20.547 89.2489 20.7594 91.2287 20.7594C93.191 20.7594 96.1722 20.2593 96.2476 17.7224C96.2476 17.7018 96.2476 17.6709 96.2476 17.6135C96.3034 16.5279 95.624 15.459 94.0585 15.2472Z" fill="#1553A3"/>
<path fill-rule="evenodd" clip-rule="evenodd" d="M102.356 14.901H101.658C100.319 14.901 99.7709 14.4514 99.7709 13.324C99.7709 12.1799 100.64 11.9193 101.337 11.9193C102.016 11.9193 102.356 11.9692 102.356 11.9692V14.901ZM101.733 10.3433C99.6768 10.3433 97.1127 10.689 97.1127 13.3803C97.1127 14.7964 97.7921 15.6702 99.1483 16.0467L96.5283 20.5469H99.4319L101.525 16.5744H102.356V20.5469H105.11V10.5839C105.11 10.5839 103.77 10.3433 101.733 10.3433Z" fill="#1553A3"/>
<path fill-rule="evenodd" clip-rule="evenodd" d="M33.9418 20.5468V6.80408H44.2037V20.5468H41.2231V8.74728H36.941V20.5468H33.9418Z" fill="#1553A3"/>
<path fill-rule="evenodd" clip-rule="evenodd" d="M52.1633 15.2205C52.1633 11.4885 49.6161 11.8146 48.6727 12.0465V18.5484C49.0504 18.6335 52.1633 19.854 52.1633 15.2205ZM45.8454 24.5687V10.8536C48.2959 10.3432 54.936 8.93798 54.936 15.0087C54.936 16.6046 54.5212 17.9904 53.71 18.9406C52.1254 20.8935 49.5219 20.6817 48.673 20.3361V24.5687H45.8454Z" fill="#1553A3"/>
<path fill-rule="evenodd" clip-rule="evenodd" d="M60.7653 19.191C61.577 19.191 62.1241 18.5177 62.3499 17.6449C62.5576 16.7402 62.5953 16.1053 62.5953 15.4319C62.5953 14.4709 62.4821 13.7585 62.2181 13.0348C61.9345 12.285 61.3315 11.9193 60.7653 11.9193C59.9541 11.9193 59.3698 12.5082 59.1243 13.324C58.8598 14.1036 58.804 14.901 58.804 15.4319C58.804 16.6628 59.0866 19.191 60.7653 19.191ZM60.5577 20.7593C57.3316 20.7593 55.9356 18.6839 55.9356 15.5667C55.9356 12.3418 57.5956 10.3433 60.8403 10.3433C61.9914 10.3433 62.9338 10.6131 63.6324 11.1516C64.3282 11.6803 64.7994 12.3418 65.0071 13.1425C65.2526 13.9399 65.3657 14.7195 65.3657 15.4898C65.3662 18.8442 63.9702 20.7593 60.5577 20.7593Z" fill="#1553A3"/>
<path fill-rule="evenodd" clip-rule="evenodd" d="M65.9515 20.547L66.9698 10.5839H70.2145L72.2331 17.3751L74.2331 10.5839H77.44L78.3829 20.547H75.7991L75.2514 13.3809L73.1388 20.547H70.8939L68.7435 13.324L68.1964 20.547H65.9515Z" fill="#1553A3"/>
<path fill-rule="evenodd" clip-rule="evenodd" d="M200.641 6.43449L204.244 8.81957L205.451 7.19578L201.848 4.81073L200.641 6.43449Z" fill="#FDC900"/>
<path fill-rule="evenodd" clip-rule="evenodd" d="M210.831 10.0863C210.617 10.1171 210.422 10.1354 210.231 10.1742C208.64 10.4976 207.594 11.4184 207.226 13.0583C206.995 14.0843 207.012 15.1146 207.284 16.1292C207.515 16.9909 207.972 17.7082 208.723 18.2023C209.362 18.6225 210.064 18.8401 210.831 18.8955V10.0863ZM213.277 18.8674C214.589 18.9492 216.085 18.0138 216.61 16.7364C217.2 15.2977 217.194 13.8221 216.669 12.3636C216.377 11.5511 215.817 10.9533 215.049 10.5712C214.495 10.2953 213.914 10.1216 213.277 10.1071V18.8674ZM204.674 13.8874C204.733 13.5819 204.787 13.275 204.853 12.971C205.423 10.3681 207.297 8.60032 209.901 8.20806C210.206 8.16217 210.512 8.12667 210.844 8.08289V2.42578H213.247C213.253 2.554 213.264 2.68327 213.264 2.81258C213.265 4.43335 213.276 6.05427 213.256 7.67477C213.251 8.03008 213.361 8.12182 213.693 8.14834C215.216 8.26988 216.575 8.80923 217.669 9.92201C218.955 11.2289 219.487 12.8502 219.447 14.668C219.416 16.1097 218.993 17.4306 218.092 18.5686C217.076 19.8509 215.73 20.5245 214.157 20.7756C213.876 20.8206 213.591 20.8443 213.263 20.883V29.6656H210.856V20.9126C210.325 20.8206 209.811 20.7607 209.312 20.6405C206.763 20.0269 204.999 17.9547 204.737 15.2935C204.729 15.2064 204.695 15.1217 204.674 15.0358V13.8874Z" fill="#1553A3"/>
<path fill-rule="evenodd" clip-rule="evenodd" d="M230.035 11.9144C229.622 12.4841 229.228 13.0509 228.81 13.5982C227.114 15.8181 225.409 18.0305 223.714 20.251C223.572 20.4373 223.427 20.523 223.19 20.5125C222.738 20.4923 222.285 20.5066 221.807 20.5066V8.45269H224.209C224.119 11.2769 224.335 14.0829 224.067 16.9028C224.101 16.8696 224.135 16.8444 224.159 16.8123C226.085 14.2767 228.027 11.754 229.921 9.19426C230.349 8.61539 230.781 8.34685 231.505 8.41442C232.31 8.48952 232.315 8.4316 232.315 9.25487V20.1614V20.4828H229.869C229.969 17.6298 229.728 14.7801 230.035 11.9144Z" fill="#1553A3"/>
<path fill-rule="evenodd" clip-rule="evenodd" d="M254.415 14.6202C252.96 14.8803 251.549 15.1296 250.14 15.3908C250.047 15.4081 249.951 15.5015 249.888 15.5844C249.497 16.0989 249.423 16.6957 249.525 17.3122C249.669 18.1852 250.149 18.6166 251.024 18.6965C252.291 18.812 253.356 18.3327 254.301 17.5202C254.36 17.47 254.41 17.3718 254.41 17.2955C254.418 16.4196 254.415 15.5436 254.415 14.6202ZM254.397 12.9332C254.497 11.3326 253.539 10.3136 251.904 10.239C250.869 10.1919 249.854 10.3268 248.847 10.5493C248.806 10.5583 248.763 10.5599 248.682 10.5698C248.604 9.86838 248.527 9.18203 248.444 8.44003C248.979 8.35114 249.495 8.2405 250.017 8.18383C251.228 8.05241 252.44 7.97255 253.634 8.33083C255.514 8.89474 256.717 10.4075 256.794 12.4039C256.849 13.8428 256.822 15.2847 256.849 16.725C256.853 16.9378 256.913 17.1705 257.014 17.3568C257.439 18.1437 257.889 18.9164 258.351 19.7314C257.732 20.1162 257.125 20.4937 256.485 20.8911C256.02 20.2836 255.561 19.685 255.121 19.1101C254.58 19.4976 254.084 19.9135 253.534 20.2357C252.069 21.0953 250.535 21.1442 249.033 20.3793C247.692 19.6957 247.216 18.4533 247.224 16.9907C247.231 15.6654 247.816 14.6516 248.865 13.8829C249.361 13.5195 249.939 13.5771 250.485 13.4928C251.718 13.3026 252.957 13.155 254.194 12.9883C254.259 12.9795 254.322 12.9541 254.397 12.9332Z" fill="#1553A3"/>
<path fill-rule="evenodd" clip-rule="evenodd" d="M245.158 20.4878H242.732V15.2871C242.611 15.2777 242.515 15.2641 242.42 15.264C240.96 15.2626 239.5 15.2706 238.041 15.2565C237.755 15.2537 237.693 15.3518 237.695 15.6231C237.707 17.0976 237.701 18.5722 237.701 20.0469V20.4784H235.304V8.45201H237.696V13.0585H242.72V8.46673C242.826 8.45314 242.909 8.43346 242.992 8.43311C243.612 8.43045 244.231 8.44361 244.85 8.42576C245.106 8.41842 245.164 8.5093 245.163 8.75495C245.154 10.6573 245.158 12.5597 245.158 14.4621C245.158 16.3419 245.158 18.2218 245.158 20.1017V20.4878Z" fill="#1553A3"/>
<path fill-rule="evenodd" clip-rule="evenodd" d="M279.321 10.6302C278.753 10.5542 278.199 10.4305 277.642 10.4182C276.974 10.4036 276.288 10.4036 275.639 10.5418C274.617 10.7594 273.926 11.4507 273.577 12.4511C273.205 13.5195 273.114 14.6267 273.335 15.7397C273.708 17.6154 274.963 18.6425 276.845 18.5515C277.631 18.5135 278.411 18.3137 279.193 18.1852C279.29 18.1693 279.385 18.1396 279.515 18.1081C279.672 18.7467 279.826 19.3743 280 20.0789C279.528 20.2497 279.064 20.4489 278.584 20.585C276.984 21.0382 275.397 21.0441 273.864 20.3158C272.2 19.5248 271.253 18.1464 270.882 16.3509C270.508 14.5386 270.655 12.7677 271.491 11.1013C272.391 9.30855 273.918 8.43103 275.821 8.15425C276.985 7.98499 278.135 8.08805 279.262 8.41943C279.359 8.44782 279.502 8.5767 279.498 8.65294C279.47 9.27024 279.412 9.88613 279.361 10.5023C279.358 10.5438 279.336 10.5839 279.321 10.6302Z" fill="#1553A3"/>
<path fill-rule="evenodd" clip-rule="evenodd" d="M268.209 8.05499C268.815 8.46104 269.394 8.84944 270.006 9.25971C268.563 10.9645 267.137 12.6484 265.695 14.3522C267.343 16.1753 268.979 17.9867 270.646 19.831C269.906 20.2157 269.195 20.5927 268.472 20.9479C268.417 20.9753 268.264 20.8709 268.197 20.7918C266.448 18.7159 264.705 16.6352 262.961 14.5554C262.932 14.5211 262.902 14.4878 262.85 14.4282C264.626 12.3165 266.405 10.201 268.209 8.05499Z" fill="#1553A3"/>
<mask id="mask0" mask-type="alpha" maskUnits="userSpaceOnUse" x="200" y="2" width="81" height="28">
<path fill-rule="evenodd" clip-rule="evenodd" d="M200.641 29.6661H280V2.42624H200.641V29.6661Z" fill="white"/>
</mask>
<g mask="url(#mask0)">
<path fill-rule="evenodd" clip-rule="evenodd" d="M260.416 20.4887H262.79V8.45804H260.416V20.4887Z" fill="#3F51B5"/>
</g>
<path d="M182.26 9.84V14.34H186.76V15.54H182.26V20.04H181.06V15.54H176.56V14.34H181.06V9.84H182.26Z" fill="#202020"/>
</svg>
